<?xml version="1.0" encoding="UTF-8" standalone="no"?>
<!-- Created with Inkscape (http://www.inkscape.org/) -->

<svg
   width="47mm"
   height="70mm"
   viewBox="0 0 47 70"
   version="1.1"
   id="svg1"
   inkscape:version="1.3 (0e150ed6c4, 2023-07-21)"
   sodipodi:docname="logo.svg"
   xmlns:inkscape="http://www.inkscape.org/namespaces/inkscape"
   xmlns:sodipodi="http://sodipodi.sourceforge.net/DTD/sodipodi-0.dtd"
   xmlns="http://www.w3.org/2000/svg"
   xmlns:svg="http://www.w3.org/2000/svg">
  <sodipodi:namedview
     id="namedview1"
     pagecolor="#ffffff"
     bordercolor="#000000"
     borderopacity="0.25"
     inkscape:showpageshadow="2"
     inkscape:pageopacity="0.0"
     inkscape:pagecheckerboard="0"
     inkscape:deskcolor="#d1d1d1"
     inkscape:document-units="mm"
     inkscape:clip-to-page="false"
     inkscape:zoom="0.98772738"
     inkscape:cx="95.674173"
     inkscape:cy="199.95396"
     inkscape:window-width="1252"
     inkscape:window-height="655"
     inkscape:window-x="1037"
     inkscape:window-y="309"
     inkscape:window-maximized="0"
     inkscape:current-layer="layer1" />
  <defs
     id="defs1">
    <clipPath
       clipPathUnits="userSpaceOnUse"
       id="clipPath1">
      <path
         d="M 0,0 H 484 V 191 H 0 Z"
         id="path1" />
    </clipPath>
  </defs>
  <g
     inkscape:label="Layer 1"
     inkscape:groupmode="layer"
     id="layer1">
    <g
       opacity="0.425781"
       id="g2"
       transform="matrix(0.26458333,0,0,0.26458333,1.6989923,1.1980962)"
       style="fill:#ffcc00;fill-opacity:1;opacity:1">
      <path
         d="m 108.762,71.313 c 0,22.167 -17.969,40.136 -40.137,40.136 -22.168,0 -40.137,-17.969 -40.137,-40.136 0,-22.168 17.969,-40.137 40.137,-40.137 22.168,0 40.137,17.969 40.137,40.137 z"
         style="fill:#ffcc00;fill-opacity:1;fill-rule:nonzero;stroke:none"
         transform="scale(1.3333333)"
         clip-path="url(#clipPath1)"
         id="path2" />
    </g>
    <path
       id="path3"
       d="m 7.0954337,58.761549 0.0635,-9.683397 0.9009944,-0.07444 0.9027583,-0.07585 V 66.762548 H 25.324166 V 55.221424 l -5.697008,-0.0635 -5.695244,-0.06491 1.424869,-1.070681 c 0.784225,-0.588433 3.347156,-2.578099 5.696656,-4.422069 l 4.270727,-3.354211 v -5.907616 l -1.624894,1.088672 c -2.345267,1.573742 -5.561542,3.130903 -8.3439,4.040364 -3.830814,1.251302 -7.1342245,1.681339 -12.249502,1.590322 L 1.6989923,47.033095 2.3604506,45.88939 C 2.7241645,45.260744 4.0858866,43.177239 5.3865782,41.257775 11.69107,31.956084 16.708628,27.784487 21.596364,27.784487 c 1.702152,0 3.020835,0.428625 3.927474,1.274938 1.106664,1.033286 1.349022,1.823156 1.479903,4.824236 l 0.124178,2.852561 1.052689,-1.047044 c 1.620661,-1.612547 2.532944,-3.74015 2.63913,-6.158442 0.128058,-2.929819 -0.330905,-4.022724 -2.728383,-6.503105 -1.059745,-1.094316 -2.221442,-2.502605 -2.582686,-3.12808 -2.309636,-3.997678 -0.739775,-8.509353 3.454752,-9.9303414 1.226609,-0.4145138 1.695098,-0.8170332 7.394575,-6.3514107 l 2.493081,-2.4197027 -3.99662,5.0214386 -3.997677,5.0217912 0.0014,1.354667 c 0,2.037997 0.935919,3.771547 3.585633,6.647391 2.5908,2.809875 3.956403,5.275086 4.351866,7.862005 0.583142,3.812822 -0.9398,8.558742 -4.092574,12.749389 -0.999067,1.328561 -6.175022,6.088238 -7.360356,6.769099 -0.26035,0.149931 -0.334786,0.932745 -0.334786,3.548239 v 3.357033 h 6.668558 l -0.545747,2.345267 c -0.300566,1.291166 -0.671336,2.968272 -0.824089,3.730624 -0.219075,1.083028 -0.376414,1.381831 -0.724958,1.381831 -1.163108,0 -1.18498,-0.104422 -0.5842,-2.841272 0.310092,-1.413933 0.569031,-2.652889 0.573264,-2.752019 0.0042,-0.09913 -1.019881,-0.180623 -2.276475,-0.180623 h -2.286353 v 11.549591 h 16.13535 L 43.008551,23.092542 42.443401,21.408381 C 41.11484,17.45339 38.747702,14.275568 35.44288,12.017085 c -1.729317,-1.1811 -1.843617,-1.458031 -0.914753,-2.2295559 0.483658,-0.4011083 3.02895,1.3902969 5.144205,3.6198529 1.956858,2.061633 3.221567,4.173008 4.282722,7.143749 l 0.737306,2.060222 0.06632,22.918208 0.06738,22.916796 H 7.0319337 Z M 25.324166,51.00326 c 0,-1.39065 -0.05503,-2.5273 -0.124178,-2.5273 -0.101952,0 -5.503685,4.198761 -6.23958,4.850695 -0.127,0.111477 1.253772,0.202494 3.067403,0.202494 h 3.296355 z M 10.980222,44.952063 c 6.023328,-1.132769 10.97033,-3.835047 12.83088,-7.007224 1.368425,-2.334331 1.899003,-5.589411 1.147939,-7.040386 -0.847725,-1.6383 -3.833989,-2.063044 -6.372225,-0.905228 -3.579988,1.633009 -7.741707,5.932311 -12.2382128,12.647436 -2.1720527,3.241322 -2.204861,3.042708 0.4699,2.83598 1.2456582,-0.0949 3.1185554,-0.333375 4.1617188,-0.530578 z m 17.685455,-1.463322 c 3.714044,-3.133725 5.330472,-4.973461 6.720769,-7.645399 1.121833,-2.156531 1.743428,-4.132792 1.893358,-6.023328 0.278342,-3.48368 -0.721783,-5.843058 -3.970161,-9.357077 -1.683808,-1.823156 -2.48038,-2.917119 -3.213452,-4.419247 -1.138061,-2.330097 -1.783292,-2.895247 -2.817989,-2.466622 -0.858661,0.3556 -1.233311,1.14935 -1.230489,2.60985 0.0039,1.78188 0.9398,3.469922 3.083983,5.564716 2.465211,2.405944 3.389842,4.408311 3.4036,7.365647 0.01517,2.964039 -1.255183,5.755922 -3.756377,8.258527 L 27.007974,39.1464 v 2.741083 c 0,1.506008 0.06914,2.739319 0.154517,2.739319 0.08537,0 0.762,-0.512586 1.503186,-1.138061 z M 7.1035476,29.529325 C 7.255242,22.849831 7.5487531,21.134273 9.0702836,18.033709 12.11017,11.832582 17.861858,8.0084709 24.962922,7.4655459 27.072885,7.3043264 29.655219,7.6073625 28.811727,7.9160431 28.547144,8.0137625 27.84441,8.2991597 27.247863,8.5499847 26.652374,8.8022208 25.245497,9.1274819 24.121194,9.2721208 18.101747,10.04929 13.161447,13.530148 10.65355,18.762548 9.2011641,21.790087 8.9626864,23.162745 8.9626864,28.495686 v 4.649611 L 8.071217,34.315108 c -0.4907139,0.642056 -0.9387416,1.168753 -0.9965972,1.168753 -0.059267,0 -0.045508,-2.678994 0.028928,-5.954536 z"
       style="fill:#ffffff;fill-opacity:1;fill-rule:nonzero;stroke:none;stroke-width:0.352778" />
  </g>
</svg>
